<?xml version="1.0" encoding="utf-8"?>
<!-- Generator: Adobe Illustrator 23.0.3, SVG Export Plug-In . SVG Version: 6.00 Build 0)  -->
<svg version="1.1" id="Layer_1" xmlns="http://www.w3.org/2000/svg" xmlns:xlink="http://www.w3.org/1999/xlink" x="0px" y="0px"
	 viewBox="0 0 145.953 59.528" style="enable-background:new 0 0 145.953 59.528;" xml:space="preserve">
<style type="text/css">
	.st0{display:none;fill:#FFFFFF;}
	.st1{clip-path:url(#SVGID_2_);fill:#034EA2;}
	.st2{clip-path:url(#SVGID_2_);fill:#FFDD00;}
</style>
<rect class="st0" width="145.953" height="59.528"/>
<g>
	<defs>
		<rect id="SVGID_1_" width="145.953" height="59.528"/>
	</defs>
	<clipPath id="SVGID_2_">
		<use xlink:href="#SVGID_1_"  style="overflow:visible;"/>
	</clipPath>
	<polygon class="st1" points="70.3211,6.2948 70.3211,14.1658 82.9581,14.1658 82.9581,19.7428 70.3211,19.7428 70.3211,32.7418 
		64.0691,32.7418 64.0691,0.7168 85.1621,0.7168 85.1621,6.2948 	"/>
	<path class="st1" d="M105.3415,32.7418l-6.252-12.774h-4.496v12.774h-6.252V0.7168h12.548c6.521,0,10.389,4.454,10.389,9.806
		c0,4.498-2.744,7.286-5.847,8.411l7.151,13.808H105.3415z M100.4845,6.2948h-5.891v8.456h5.891c2.743,0,4.542-1.754,4.542-4.228
		S103.2275,6.2948,100.4845,6.2948"/>
	<path class="st1" d="M135.9637,32.7418l-1.888-5.667h-11.378l-1.934,5.667h-6.521l11.647-32.025h4.903l11.693,32.025H135.9637z
		 M128.4987,10.1628l-4.048,11.649h7.961L128.4987,10.1628z"/>
	<path class="st1" d="M22.486,0.717c0.733,0.676,1.201,1.635,1.201,2.709c0,0.723-0.209,1.398-0.57,1.968h0.054
		c0.066,0,0.131,0.006,0.194,0.018c0.881,0.117,1.595,0.814,1.758,1.734l1.48,8.22c0.1,0.57-0.027,1.158-0.35,1.616
		c-0.307,0.435-0.758,0.723-1.272,0.811c-0.105,0.02-0.222,0.03-0.338,0.03c-0.151,0-0.3-0.018-0.443-0.051v0.656l0.485,4.251
		c0.004,0.053,0.227,4.037,0.289,5.221l11.05,4.842h24.114V0.717H22.486z"/>
	<path class="st2" d="M19.9938,6.0882c1.471,0,2.664-1.19,2.664-2.662c0-1.471-1.193-2.667-2.664-2.667
		c-1.474,0-2.664,1.196-2.664,2.667C17.3298,4.8982,18.5198,6.0882,19.9938,6.0882 M24.3008,8.3852l-0.191-1.06
		c-0.089-0.505-0.488-0.868-0.939-0.9v-0.003h-2.527v0.007l-1.393-0.004h-2.529v0.004c-0.449,0.032-0.848,0.395-0.937,0.898
		l-0.191,1.061l-1.29,7.163c-0.105,0.585,0.246,1.14,0.782,1.232c0.537,0.1,1.057-0.296,1.162-0.887l0.474-2.641v5.33l-0.007,4.207
		c0,0-1.249,3.661-1.492,4.532c-0.228,0.818,0.13,1.652,0.815,1.869c0.798,0.254,1.675-0.295,1.928-1.19
		c0.395-1.39,1.517-4.715,1.517-4.715l0.176-4.628h0.497l0.633,4.589c0,0,0.292,4.792,0.33,5.299
		c0.042,0.576,0.475,1.558,1.535,1.464c1.266-0.11,1.332-1.236,1.308-1.757c-0.014-0.352-0.299-5.459-0.299-5.459l-0.492-4.309
		v-5.235l0.476,2.642c0.105,0.587,0.626,0.984,1.16,0.886c0.538-0.092,0.887-0.647,0.784-1.232L24.3008,8.3852z"/>
	<polygon class="st1" points="11.5067,45.2903 11.5067,37.3253 15.6877,37.3253 15.6877,38.3703 12.7277,38.3703 12.7277,40.7143 
		15.4237,40.7143 15.4237,41.7363 12.7277,41.7363 12.7277,44.2453 15.6877,44.2453 15.6877,45.2903 	"/>
	<path class="st1" d="M19.746,45.4007c-1.496,0-2.651-0.892-2.651-2.432v-5.643h1.243v5.654c0,0.848,0.627,1.354,1.408,1.354
		c0.781,0,1.408-0.506,1.408-1.354v-5.654h1.243v5.643C22.397,44.5087,21.242,45.4007,19.746,45.4007"/>
	<path class="st1" d="M28.37,45.2906l-1.122-2.52c-0.242-0.539-0.616-0.857-1.221-0.857h-0.704v3.377h-1.222v-7.657
		c0.595-0.264,1.442-0.429,2.267-0.429c1.914,0,2.904,0.913,2.904,2.321c0,1.21-0.759,1.805-1.705,2.014v0.021
		c0.407,0.209,0.704,0.617,0.935,1.122l1.188,2.608H28.37z M26.39,38.1616c-0.396,0-0.814,0.066-1.067,0.165v2.685h0.935
		c1.133,0,1.793-0.408,1.793-1.431C28.051,38.7006,27.523,38.1616,26.39,38.1616"/>
	<path class="st1" d="M33.5727,45.4111c-2.057,0-3.069-1.815-3.069-4.103s1.012-4.104,3.069-4.104c2.058,0,3.07,1.816,3.07,4.104
		S35.6307,45.4111,33.5727,45.4111 M33.5727,38.3051c-1.199,0-1.826,1.265-1.826,3.003s0.627,3.004,1.826,3.004
		c1.199,0,1.827-1.266,1.827-3.004S34.7717,38.3051,33.5727,38.3051"/>
	<path class="st1" d="M40.1511,42.1436c-0.297,0-0.638-0.033-0.836-0.065v3.212h-1.221v-7.668c0.571-0.264,1.342-0.418,2.2-0.418
		c1.903,0,2.948,0.968,2.948,2.486C43.2421,41.1096,42.1641,42.1436,40.1511,42.1436 M40.3051,38.1616
		c-0.385,0-0.771,0.077-0.99,0.165v2.795c0.187,0.032,0.506,0.055,0.792,0.055c1.243,0,1.914-0.573,1.914-1.496
		C42.0211,38.6796,41.4161,38.1616,40.3051,38.1616"/>
	<polygon class="st1" points="44.5507,45.2903 44.5507,37.3253 48.7317,37.3253 48.7317,38.3703 45.7717,38.3703 45.7717,40.7143 
		48.4677,40.7143 48.4677,41.7363 45.7717,41.7363 45.7717,44.2453 48.7317,44.2453 48.7317,45.2903 	"/>
	<path class="st1" d="M55.1449,45.2904l-0.683-2.101h-2.992l-0.682,2.101h-1.299l2.751-7.965h1.452l2.75,7.965H55.1449z
		 M53.2079,39.2944c-0.121-0.374-0.209-0.813-0.231-0.945h-0.022c-0.022,0.132-0.11,0.56-0.231,0.945l-0.957,2.971h2.398
		L53.2079,39.2944z"/>
	<path class="st1" d="M62.2831,45.2903l-3.257-5.292c-0.253-0.418-0.407-0.792-0.462-0.901h-0.022c0,0.077,0.022,0.516,0.022,1.001
		v5.192h-1.078v-7.965h1.133l3.19,5.182c0.221,0.352,0.43,0.792,0.474,0.891h0.021c0-0.088-0.021-0.528-0.021-1.023v-5.05h1.078
		v7.965H62.2831z"/>
	<path class="st1" d="M70.6532,45.4007c-1.496,0-2.651-0.892-2.651-2.432v-5.643h1.243v5.654c0,0.848,0.628,1.354,1.408,1.354
		c0.781,0,1.408-0.506,1.408-1.354v-5.654h1.243v5.643C73.3042,44.5087,72.1502,45.4007,70.6532,45.4007"/>
	<path class="st1" d="M79.7948,45.2903l-3.256-5.292c-0.254-0.418-0.407-0.792-0.463-0.901h-0.021c0,0.077,0.021,0.516,0.021,1.001
		v5.192h-1.078v-7.965h1.134l3.19,5.182c0.22,0.352,0.429,0.792,0.473,0.891h0.022c0-0.088-0.022-0.528-0.022-1.023v-5.05h1.078
		v7.965H79.7948z"/>
	<rect x="82.577" y="37.325" class="st1" width="1.243" height="7.965"/>
	<path class="st1" d="M88.3525,45.4111c-2.058,0-3.069-1.815-3.069-4.103s1.011-4.104,3.069-4.104c2.057,0,3.069,1.816,3.069,4.104
		S90.4095,45.4111,88.3525,45.4111 M88.3525,38.3051c-1.199,0-1.826,1.265-1.826,3.003s0.627,3.004,1.826,3.004
		c1.199,0,1.826-1.266,1.826-3.004S89.5515,38.3051,88.3525,38.3051"/>
	<path class="st1" d="M97.6689,45.2903l-3.256-5.292c-0.254-0.418-0.407-0.792-0.463-0.901h-0.021c0,0.077,0.021,0.516,0.021,1.001
		v5.192h-1.078v-7.965h1.134l3.19,5.182c0.22,0.352,0.429,0.792,0.473,0.891h0.022c0-0.088-0.022-0.528-0.022-1.023v-5.05h1.078
		v7.965H97.6689z"/>
	<path class="st1" d="M108.3949,45.2904l-0.682-2.101h-2.992l-0.683,2.101h-1.298l2.75-7.965h1.452l2.751,7.965H108.3949z
		 M106.4589,39.2944c-0.121-0.374-0.21-0.813-0.231-0.945h-0.023c-0.021,0.132-0.109,0.56-0.23,0.945l-0.957,2.971h2.398
		L106.4589,39.2944z"/>
	<path class="st1" d="M113.9384,45.4114c-2.102,0-3.575-1.507-3.575-4.103c0-2.597,1.528-4.104,3.663-4.104
		c0.803,0,1.562,0.176,1.958,0.418l-0.407,0.98c-0.319-0.188-0.847-0.341-1.507-0.341c-1.342,0-2.464,0.957-2.464,3.047
		c0,2.09,1.089,3.058,2.255,3.058c0.484,0,0.902-0.077,1.056-0.165v-2.553h-1.463v-0.957h2.63v4.302
		C115.6664,45.2244,114.8844,45.4114,113.9384,45.4114"/>
	<polygon class="st1" points="117.7431,45.2903 117.7431,37.3253 121.9241,37.3253 121.9241,38.3703 118.9651,38.3703 
		118.9651,40.7143 121.6601,40.7143 121.6601,41.7363 118.9651,41.7363 118.9651,44.2453 121.9241,44.2453 121.9241,45.2903 	"/>
	<path class="st1" d="M128.1278,45.2903l-3.256-5.292c-0.254-0.418-0.407-0.792-0.463-0.901h-0.021c0,0.077,0.021,0.516,0.021,1.001
		v5.192h-1.078v-7.965h1.134l3.19,5.182c0.22,0.352,0.429,0.792,0.473,0.891h0.022c0-0.088-0.022-0.528-0.022-1.023v-5.05h1.078
		v7.965H128.1278z"/>
	<path class="st1" d="M133.8046,45.4114c-1.717,0-3.146-1.32-3.146-4.103c0-2.784,1.429-4.104,3.146-4.104
		c0.704,0,1.342,0.176,1.716,0.418l-0.407,1.001c-0.243-0.176-0.682-0.33-1.177-0.33c-1.122,0-1.991,0.979-1.991,3.004
		c0,2.024,0.869,3.003,1.991,3.003c0.495,0,0.934-0.143,1.177-0.319l0.407,1.012
		C135.1466,45.2354,134.5306,45.4114,133.8046,45.4114"/>
	<polygon class="st1" points="139.8974,42.1332 139.8974,45.2902 138.6544,45.2902 138.6544,42.1332 136.2014,37.3252 
		137.5434,37.3252 139.2704,40.8792 139.2934,40.8792 141.0084,37.3252 142.3504,37.3252 	"/>
	<polygon class="st1" points="12.7279,50.3704 12.7279,52.7144 15.3679,52.7144 15.3679,53.7364 12.7279,53.7364 12.7279,57.2904 
		11.5069,57.2904 11.5069,49.3254 15.6209,49.3254 15.6209,50.3704 	"/>
	<path class="st1" d="M19.6249,57.4109c-2.057,0-3.069-1.815-3.069-4.103s1.012-4.104,3.069-4.104c2.058,0,3.07,1.816,3.07,4.104
		S21.6829,57.4109,19.6249,57.4109 M19.6249,50.3049c-1.199,0-1.826,1.265-1.826,3.003s0.627,3.004,1.826,3.004
		c1.199,0,1.826-1.266,1.826-3.004S20.8239,50.3049,19.6249,50.3049"/>
	<path class="st1" d="M28.2597,57.2904l-1.122-2.52c-0.242-0.539-0.616-0.857-1.221-0.857h-0.704v3.377h-1.222v-7.657
		c0.595-0.264,1.442-0.429,2.267-0.429c1.914,0,2.904,0.913,2.904,2.321c0,1.21-0.759,1.805-1.705,2.014v0.021
		c0.407,0.209,0.704,0.617,0.935,1.122l1.188,2.608H28.2597z M26.2797,50.1614c-0.396,0-0.814,0.066-1.067,0.165v2.685h0.935
		c1.133,0,1.793-0.408,1.793-1.431C27.9407,50.7004,27.4127,50.1614,26.2797,50.1614"/>
	<polygon class="st1" points="34.6283,50.3704 34.6283,52.7144 37.2683,52.7144 37.2683,53.7364 34.6283,53.7364 34.6283,57.2904 
		33.4073,57.2904 33.4073,49.3254 37.5213,49.3254 37.5213,50.3704 	"/>
	<path class="st1" d="M41.3495,57.4005c-1.496,0-2.651-0.892-2.651-2.432v-5.643h1.243v5.654c0,0.848,0.627,1.354,1.408,1.354
		c0.781,0,1.408-0.506,1.408-1.354v-5.654h1.243v5.643C44.0005,56.5085,42.8455,57.4005,41.3495,57.4005"/>
	<path class="st1" d="M50.3256,57.2902l-3.256-5.292c-0.253-0.418-0.408-0.792-0.462-0.901h-0.022c0,0.077,0.022,0.516,0.022,1.001
		v5.192h-1.078v-7.965h1.132l3.191,5.182c0.22,0.352,0.429,0.792,0.473,0.891h0.022c0-0.088-0.022-0.528-0.022-1.023v-5.05h1.078
		v7.965H50.3256z"/>
	<path class="st1" d="M55.0662,57.4113c-0.869,0-1.683-0.187-2.134-0.418v-7.371c0.484-0.242,1.287-0.418,2.134-0.418
		c2.102,0,3.477,1.398,3.477,4.104S57.1682,57.4113,55.0662,57.4113 M55.1322,50.2493c-0.374,0-0.748,0.056-0.957,0.154v5.809
		c0.176,0.088,0.55,0.154,0.957,0.154c1.232,0,2.167-0.913,2.167-3.058C57.2992,51.1623,56.3642,50.2493,55.1322,50.2493"/>
	<path class="st1" d="M64.7025,57.2902l-0.682-2.101h-2.992l-0.683,2.101h-1.298l2.75-7.965h1.452l2.751,7.965H64.7025z
		 M62.7655,51.2942c-0.12-0.374-0.209-0.813-0.23-0.945h-0.023c-0.021,0.132-0.109,0.56-0.23,0.945l-0.957,2.971h2.398
		L62.7655,51.2942z"/>
	<path class="st1" d="M73.9765,57.2902l-0.649-5.533c-0.055-0.474-0.078-0.881-0.088-1.024h-0.023
		c-0.032,0.166-0.121,0.583-0.253,1.024l-1.682,5.533h-0.848l-1.672-5.533c-0.143-0.474-0.242-0.957-0.253-1.024h-0.022
		c0,0.055-0.033,0.55-0.088,1.024l-0.66,5.533h-1.156l1.024-7.965h1.441l1.574,5.204c0.087,0.285,0.197,0.792,0.23,0.979h0.022
		c0.034-0.154,0.099-0.529,0.231-0.979l1.573-5.204h1.442l1.023,7.965H73.9765z"/>
	<polygon class="st1" points="76.372,57.2902 76.372,49.3252 80.553,49.3252 80.553,50.3702 77.594,50.3702 77.594,52.7142 
		80.289,52.7142 80.289,53.7362 77.594,53.7362 77.594,56.2452 80.553,56.2452 80.553,57.2902 	"/>
	<path class="st1" d="M86.5927,57.2902l-3.256-5.292c-0.254-0.418-0.407-0.792-0.463-0.901h-0.021c0,0.077,0.021,0.516,0.021,1.001
		v5.192h-1.078v-7.965h1.134l3.19,5.182c0.22,0.352,0.429,0.792,0.473,0.891h0.022c0-0.088-0.022-0.528-0.022-1.023v-5.05h1.078
		v7.965H86.5927z"/>
	<polygon class="st1" points="91.828,50.3704 91.828,57.2904 90.585,57.2904 90.585,50.3704 88.748,50.3704 88.748,49.3254 
		93.654,49.3254 93.654,50.3704 	"/>
	<path class="st1" d="M99.1322,57.2902l-0.682-2.101h-2.992l-0.683,2.101h-1.298l2.75-7.965h1.452l2.751,7.965H99.1322z
		 M97.1952,51.2942c-0.12-0.374-0.209-0.813-0.23-0.945h-0.023c-0.021,0.132-0.109,0.56-0.23,0.945l-0.957,2.971h2.398
		L97.1952,51.2942z"/>
	<polygon class="st1" points="101.3212,57.2902 101.3212,49.3252 102.5642,49.3252 102.5642,56.2452 105.3032,56.2452 
		105.3032,57.2902 	"/>
	<path class="st1" d="M113.4535,57.2904l-1.122-2.52c-0.242-0.539-0.616-0.857-1.221-0.857h-0.704v3.377h-1.221v-7.657
		c0.594-0.264,1.44-0.429,2.266-0.429c1.915,0,2.904,0.913,2.904,2.321c0,1.21-0.759,1.805-1.705,2.014v0.021
		c0.407,0.209,0.704,0.617,0.935,1.122l1.189,2.608H113.4535z M111.4735,50.1614c-0.396,0-0.814,0.066-1.067,0.165v2.685h0.935
		c1.133,0,1.793-0.408,1.793-1.431C113.1345,50.7004,112.6065,50.1614,111.4735,50.1614"/>
	<rect x="115.83" y="49.325" class="st1" width="1.243" height="7.965"/>
	<path class="st1" d="M121.9462,57.4112c-2.102,0-3.575-1.507-3.575-4.103c0-2.597,1.528-4.104,3.663-4.104
		c0.803,0,1.562,0.176,1.958,0.418l-0.407,0.98c-0.319-0.188-0.847-0.341-1.507-0.341c-1.342,0-2.464,0.957-2.464,3.047
		c0,2.09,1.089,3.058,2.255,3.058c0.484,0,0.902-0.077,1.056-0.165v-2.553h-1.463v-0.957h2.63v4.302
		C123.6742,57.2242,122.8922,57.4112,121.9462,57.4112"/>
	<polygon class="st1" points="129.7558,57.2902 129.7558,53.7362 126.8288,53.7362 126.8288,57.2902 125.5858,57.2902 
		125.5858,49.3252 126.8288,49.3252 126.8288,52.7142 129.7558,52.7142 129.7558,49.3252 130.9988,49.3252 130.9988,57.2902 	"/>
	<polygon class="st1" points="135.1562,50.3704 135.1562,57.2904 133.9132,57.2904 133.9132,50.3704 132.0762,50.3704 
		132.0762,49.3254 136.9822,49.3254 136.9822,50.3704 	"/>
	<path class="st1" d="M139.6444,57.4112c-0.759,0-1.529-0.176-1.98-0.418l0.429-1.078c0.363,0.198,0.946,0.385,1.507,0.385
		c0.88,0,1.474-0.451,1.474-1.188c0-0.682-0.605-1.012-1.276-1.309c-0.946-0.429-2.047-1.001-2.047-2.355
		c0-1.375,1.001-2.244,2.52-2.244c0.759,0,1.408,0.188,1.793,0.418l-0.396,1.013c-0.296-0.165-0.836-0.364-1.353-0.364
		c-0.781,0-1.32,0.418-1.32,1.112c0,0.671,0.67,1.034,1.342,1.342c0.902,0.418,2.002,0.967,2.002,2.332
		C142.3394,56.4872,141.2944,57.4112,139.6444,57.4112"/>
	<path class="st1" d="M8.1147,26.7568c0.213-0.768,0.976-3.431,1.159-4.068l0.006-4.883c-0.251,0.059-0.523,0.069-0.795,0.019
		c-0.501-0.087-0.953-0.376-1.259-0.813c-0.322-0.46-0.449-1.048-0.348-1.614l0.986-5.484c-2.127-0.379-4.656-0.447-7.111-0.447
		c0.987,0.024,5.93,1.034,5.93,3.754c0,3.315-3.876,3.394-3.876,6.343c0,1.79,3.182,6.264,5.682,9.503
		C8.0427,28.4518,7.8787,27.6038,8.1147,26.7568"/>
	<path class="st1" d="M22.7437,31.0365c-0.078,0.007-0.154,0.01-0.229,0.01c-1.457,0-2.335-1.248-2.422-2.423
		c-0.015-0.206-0.073-1.121-0.135-2.134c-0.128-0.069-0.254-0.139-0.38-0.208c-0.245,0.757-0.482,1.509-0.622,2.003
		c-0.098,0.345-0.261,0.654-0.465,0.926c-0.242,1.079-1.012,1.78-2.16,1.881c-0.078,0.007-0.154,0.01-0.229,0.01
		c-1.457,0-2.336-1.25-2.422-2.426c-0.02-0.265-0.109-1.699-0.19-3.012c-0.23,0.829-0.481,1.728-0.652,2.331
		c-0.403,1.426-1.905,2.311-3.231,1.89c-0.445-0.142-0.813-0.418-1.085-0.775c1.602,2.074,2.917,3.632,2.917,3.632h20.577
		c0,0-3.177-1.568-7.105-3.616C24.6757,30.2225,23.9037,30.9355,22.7437,31.0365"/>
	<path class="st1" d="M13.5803,6.0984c1.471,0,2.664-1.193,2.664-2.668c0-1.473-1.193-2.671-2.664-2.671
		c-1.474,0-2.664,1.198-2.664,2.671C10.9163,4.9054,12.1063,6.0984,13.5803,6.0984 M17.8873,8.3994l-0.191-1.062
		c-0.089-0.506-0.488-0.869-0.939-0.901v-0.004h-2.527v0.007l-1.393-0.003h-2.529v0.003c-0.449,0.032-0.848,0.396-0.937,0.9
		l-0.191,1.063l-1.29,7.177c-0.105,0.586,0.246,1.142,0.782,1.234c0.537,0.1,1.057-0.297,1.162-0.889l0.474-2.646v5.34l-0.007,4.215
		c0,0-0.953,3.326-1.196,4.199c-0.228,0.82,0.131,1.655,0.815,1.872c0.798,0.256,1.675-0.295,1.928-1.191
		c0.396-1.393,1.221-4.383,1.221-4.383l0.176-4.637h0.497l0.633,4.598c0,0,0.292,4.801,0.33,5.309
		c0.042,0.577,0.475,1.56,1.535,1.466c1.266-0.11,1.332-1.238,1.308-1.76c-0.014-0.353-0.299-5.469-0.299-5.469l-0.492-4.317v-5.245
		l0.476,2.647c0.105,0.588,0.626,0.986,1.16,0.887c0.538-0.092,0.887-0.648,0.784-1.234L17.8873,8.3994z"/>
	<polygon class="st2" points="42.7278,5.3321 44.3408,5.3321 43.0408,6.3451 43.5448,7.9491 42.2528,6.9601 40.9588,7.9491 
		41.4688,6.3451 40.1588,5.3321 41.7648,5.3321 42.2528,3.7671 	"/>
	<polygon class="st2" points="42.7848,25.9928 44.3998,25.9928 43.0998,26.9688 43.6038,28.5098 42.3118,27.5598 41.0178,28.5098 
		41.5278,26.9688 40.2168,25.9928 41.8258,25.9928 42.3118,24.4868 	"/>
	<polygon class="st2" points="47.8958,24.6243 49.5088,24.6243 48.2108,25.5993 48.7158,27.1443 47.4208,26.1903 46.1288,27.1443 
		46.6368,25.5993 45.3258,24.6243 46.9348,24.6243 47.4208,23.1183 	"/>
	<polygon class="st2" points="47.8958,6.7114 49.5088,6.7114 48.2108,7.6834 48.7158,9.2284 47.4208,8.2784 46.1288,9.2284 
		46.6368,7.6834 45.3258,6.7114 46.9348,6.7114 47.4208,5.2054 	"/>
	<polygon class="st2" points="51.6888,10.5046 53.2998,10.5046 52.0018,11.4766 52.5058,13.0236 51.2118,12.0716 49.9218,13.0236 
		50.4318,11.4766 49.1208,10.5046 50.7258,10.5046 51.2118,8.9986 	"/>
	<polygon class="st2" points="51.6888,20.8828 53.2998,20.8828 52.0018,21.8588 52.5058,23.4038 51.2118,22.4498 49.9218,23.4038 
		50.4318,21.8588 49.1208,20.8828 50.7258,20.8828 51.2118,19.3768 	"/>
	<polygon class="st2" points="53.1101,15.6145 54.7231,15.6145 53.4251,16.5885 53.9301,18.1335 52.6371,17.1795 51.3431,18.1335 
		51.8531,16.5885 50.5421,15.6145 52.1471,15.6145 52.6371,14.1095 	"/>
	<polygon class="st2" points="37.5191,6.7242 39.1301,6.7242 37.8321,7.6982 38.3361,9.2432 37.0421,8.2892 35.7501,9.2432 
		36.2591,7.6982 34.9491,6.7242 36.5561,6.7242 37.0421,5.2182 	"/>
	<polygon class="st2" points="33.8313,10.5176 35.4443,10.5176 34.1443,11.4896 34.6463,13.0366 33.3563,12.0846 32.0633,13.0366 
		32.5713,11.4896 31.2613,10.5176 32.8703,10.5176 33.3563,9.0116 	"/>
	<polygon class="st2" points="32.4612,15.6275 34.0742,15.6275 32.7742,16.6015 33.2782,18.1465 31.9862,17.1965 30.6922,18.1465 
		31.2022,16.6015 29.8932,15.6275 31.4982,15.6275 31.9862,14.1225 	"/>
	<polygon class="st2" points="33.8313,20.8957 35.4443,20.8957 34.1443,21.8697 34.6463,23.4147 33.3563,22.4627 32.0633,23.4147 
		32.5713,21.8697 31.2613,20.8957 32.8703,20.8957 33.3563,19.3917 	"/>
	<polygon class="st2" points="37.5727,24.6375 39.1837,24.6375 37.8837,25.6115 38.3857,27.1565 37.0957,26.2025 35.8037,27.1565 
		36.3127,25.6115 35.0027,24.6375 36.6097,24.6375 37.0957,23.1315 	"/>
</g>
</svg>
